HIERARCHY
ROOT Hips
{
  OFFSET 57.121 3.219 -279.393
  CHANNELS 6 Xposition Yposition Zposition Zrotation Xrotation Yrotation
  JOINT LeftUpLeg
  {
    OFFSET 5.860 -4.867 2.471
    CHANNELS 6 Xposition Yposition Zposition Zrotation Xrotation Yrotation
    JOINT LeftLeg
    {
      OFFSET -0.000 -52.858 0.000
      CHANNELS 6 Xposition Yposition Zposition Zrotation Xrotation Yrotation
      JOINT LeftFoot
      {
        OFFSET -0.000 -39.814 -0.000
        CHANNELS 6 Xposition Yposition Zposition Zrotation Xrotation Yrotation
        End Site
        {
          OFFSET -0.000 -8.424 4.864
        }
      }
    }
  }
  JOINT RightUpLeg
  {
    OFFSET -5.187 -5.512 3.216
    CHANNELS 6 Xposition Yposition Zposition Zrotation Xrotation Yrotation
    JOINT RightLeg
    {
      OFFSET -0.000 -47.640 0.000
      CHANNELS 6 Xposition Yposition Zposition Zrotation Xrotation Yrotation
      JOINT RightFoot
      {
        OFFSET 0.000 -40.216 -0.000
        CHANNELS 6 Xposition Yposition Zposition Zrotation Xrotation Yrotation
        End Site
        {
          OFFSET 0.000 -8.375 4.835
        }
      }
    }
  }
  JOINT Spine
  {
    OFFSET 0.000 5.322 -5.322
    CHANNELS 6 Xposition Yposition Zposition Zrotation Xrotation Yrotation
    JOINT LeftShoulder
    {
      OFFSET -0.000 37.736 0.000
      CHANNELS 6 Xposition Yposition Zposition Zrotation Xrotation Yrotation
      JOINT LeftArm
      {
        OFFSET 20.219 0.000 -0.000
        CHANNELS 6 Xposition Yposition Zposition Zrotation Xrotation Yrotation
        JOINT LeftForeArm
        {
          OFFSET 23.207 0.000 0.000
          CHANNELS 6 Xposition Yposition Zposition Zrotation Xrotation Yrotation
          JOINT LeftHand
          {
            OFFSET 23.496 -0.000 -0.000
            CHANNELS 6 Xposition Yposition Zposition Zrotation Xrotation Yrotation
            JOINT LeftHandThumb1
            {
            OFFSET 4.970 -0.620 3.390
            CHANNELS 6 Xposition Yposition Zposition Zrotation Xrotation Yrotation
              JOINT LeftHandThumb2
              {
              OFFSET 2.150 -0.000 0.000
              CHANNELS 6 Xposition Yposition Zposition Zrotation Xrotation Yrotation
                JOINT LeftHandThumb3
                {
                OFFSET 2.200 -0.000 0.000
                CHANNELS 6 Xposition Yposition Zposition Zrotation Xrotation Yrotation
                  JOINT LeftHandThumb4
                  {
                  OFFSET 1.700 -0.000 0.000
                  CHANNELS 6 Xposition Yposition Zposition Zrotation Xrotation Yrotation
                  }
                }
              }
            }
            JOINT LeftHandIndex1
            {
            OFFSET 8.730 0.680 2.070
            CHANNELS 6 Xposition Yposition Zposition Zrotation Xrotation Yrotation
              JOINT LeftHandIndex2
              {
              OFFSET 2.670 -0.000 0.000
              CHANNELS 6 Xposition Yposition Zposition Zrotation Xrotation Yrotation
                JOINT LeftHandIndex3
                {
                OFFSET 2.130 -0.000 0.000
                CHANNELS 6 Xposition Yposition Zposition Zrotation Xrotation Yrotation
                  JOINT LeftHandIndex4
                  {
                  OFFSET 1.800 -0.000 0.000
                  CHANNELS 6 Xposition Yposition Zposition Zrotation Xrotation Yrotation
                  }
                }
              }
            }
            JOINT LeftHandMiddle1
            {
            OFFSET 9.220 0.670 0.550
            CHANNELS 6 Xposition Yposition Zposition Zrotation Xrotation Yrotation
              JOINT LeftHandMiddle2
              {
              OFFSET 2.660 -0.000 0.000
              CHANNELS 6 Xposition Yposition Zposition Zrotation Xrotation Yrotation
                JOINT LeftHandMiddle3
                {
                OFFSET 2.280 -0.000 0.000
                CHANNELS 6 Xposition Yposition Zposition Zrotation Xrotation Yrotation
                  JOINT LeftHandMiddle4
                  {
                  OFFSET 1.500 -0.000 0.000
                  CHANNELS 6 Xposition Yposition Zposition Zrotation Xrotation Yrotation
                  }
                }
              }
            }
            JOINT LeftHandRing1
            {
            OFFSET 9.250 0.670 -1.130
            CHANNELS 6 Xposition Yposition Zposition Zrotation Xrotation Yrotation
              JOINT LeftHandRing2
              {
              OFFSET 2.470 -0.000 0.000
              CHANNELS 6 Xposition Yposition Zposition Zrotation Xrotation Yrotation
                JOINT LeftHandRing3
                {
                OFFSET 2.210 -0.000 0.000
                CHANNELS 6 Xposition Yposition Zposition Zrotation Xrotation Yrotation
                  JOINT LeftHandRing4
                  {
                  OFFSET 1.800 -0.000 0.000
                  CHANNELS 6 Xposition Yposition Zposition Zrotation Xrotation Yrotation
                  }
                }
              }
            }
            JOINT LeftHandPinky1
            {
            OFFSET 9.350 0.660 -2.720
            CHANNELS 6 Xposition Yposition Zposition Zrotation Xrotation Yrotation
              JOINT LeftHandPinky2
              {
              OFFSET 1.630 -0.000 0.000
              CHANNELS 6 Xposition Yposition Zposition Zrotation Xrotation Yrotation
                JOINT LeftHandPinky3
                {
                OFFSET 1.710 -0.000 0.000
                CHANNELS 6 Xposition Yposition Zposition Zrotation Xrotation Yrotation
                  JOINT LeftHandPinky4
                  {
                  OFFSET 1.800 -0.000 0.000
                  CHANNELS 6 Xposition Yposition Zposition Zrotation Xrotation Yrotation
                  }
                }
              }
            }
          }
        }
      }
    }
    JOINT RightShoulder
    {
      OFFSET -0.000 37.736 0.000
      CHANNELS 6 Xposition Yposition Zposition Zrotation Xrotation Yrotation
      JOINT RightArm
      {
        OFFSET -21.887 0.000 -0.000
        CHANNELS 6 Xposition Yposition Zposition Zrotation Xrotation Yrotation
        JOINT RightForeArm
        {
          OFFSET -22.986 0.000 0.000
          CHANNELS 6 Xposition Yposition Zposition Zrotation Xrotation Yrotation
          JOINT RightHand
          {
            OFFSET -21.556 0.000 -0.000
            CHANNELS 6 Xposition Yposition Zposition Zrotation Xrotation Yrotation
            JOINT RightHandThumb1
            {
            OFFSET -4.970 -0.620 3.390
            CHANNELS 6 Xposition Yposition Zposition Zrotation Xrotation Yrotation
              JOINT RightHandThumb2
              {
              OFFSET -2.150 0.000 0.000
              CHANNELS 6 Xposition Yposition Zposition Zrotation Xrotation Yrotation
                JOINT RightHandThumb3
                {
                OFFSET -2.200 0.000 0.000
                CHANNELS 6 Xposition Yposition Zposition Zrotation Xrotation Yrotation
                  JOINT RightHandThumb4
                  {
                  OFFSET -1.700 0.000 0.000
                  CHANNELS 6 Xposition Yposition Zposition Zrotation Xrotation Yrotation
                  }
                }
              }
            }
            JOINT RightHandIndex1
            {
            OFFSET -8.730 0.680 2.070
            CHANNELS 6 Xposition Yposition Zposition Zrotation Xrotation Yrotation
              JOINT RightHandIndex2
              {
              OFFSET -2.670 0.000 0.000
              CHANNELS 6 Xposition Yposition Zposition Zrotation Xrotation Yrotation
                JOINT RightHandIndex3
                {
                OFFSET -2.130 0.000 0.000
                CHANNELS 6 Xposition Yposition Zposition Zrotation Xrotation Yrotation
                  JOINT RightHandIndex4
                  {
                  OFFSET -1.800 0.000 0.000
                  CHANNELS 6 Xposition Yposition Zposition Zrotation Xrotation Yrotation
                  }
                }
              }
            }
            JOINT RightHandMiddle1
            {
            OFFSET -9.220 0.670 0.550
            CHANNELS 6 Xposition Yposition Zposition Zrotation Xrotation Yrotation
              JOINT RightHandMiddle2
              {
              OFFSET -2.660 0.000 0.000
              CHANNELS 6 Xposition Yposition Zposition Zrotation Xrotation Yrotation
                JOINT RightHandMiddle3
                {
                OFFSET -2.280 0.000 0.000
                CHANNELS 6 Xposition Yposition Zposition Zrotation Xrotation Yrotation
                  JOINT RightHandMiddle4
                  {
                  OFFSET -1.500 0.000 0.000
                  CHANNELS 6 Xposition Yposition Zposition Zrotation Xrotation Yrotation
                  }
                }
              }
            }
            JOINT RightHandRing1
            {
            OFFSET -9.250 0.670 -1.130
            CHANNELS 6 Xposition Yposition Zposition Zrotation Xrotation Yrotation
              JOINT RightHandRing2
              {
              OFFSET -2.470 0.000 0.000
              CHANNELS 6 Xposition Yposition Zposition Zrotation Xrotation Yrotation
                JOINT RightHandRing3
                {
                OFFSET -2.210 0.000 0.000
                CHANNELS 6 Xposition Yposition Zposition Zrotation Xrotation Yrotation
                  JOINT RightHandRing4
                  {
                  OFFSET -1.800 0.000 0.000
                  CHANNELS 6 Xposition Yposition Zposition Zrotation Xrotation Yrotation
                  }
                }
              }
            }
            JOINT RightHandPinky1
            {
            OFFSET -9.350 0.660 -2.720
            CHANNELS 6 Xposition Yposition Zposition Zrotation Xrotation Yrotation
              JOINT RightHandPinky2
              {
              OFFSET -1.630 0.000 0.000
              CHANNELS 6 Xposition Yposition Zposition Zrotation Xrotation Yrotation
                JOINT RightHandPinky3
                {
                OFFSET -1.710 0.000 0.000
                CHANNELS 6 Xposition Yposition Zposition Zrotation Xrotation Yrotation
                  JOINT RightHandPinky4
                  {
                  OFFSET -1.800 0.000 0.000
                  CHANNELS 6 Xposition Yposition Zposition Zrotation Xrotation Yrotation
                  }
                }
              }
            }
          }
        }
      }
    }
    JOINT Neck
    {
      OFFSET -0.000 37.736 0.000
      CHANNELS 6 Xposition Yposition Zposition Zrotation Xrotation Yrotation
      JOINT Head
      {
        OFFSET -0.000 17.956 -0.000
        CHANNELS 6 Xposition Yposition Zposition Zrotation Xrotation Yrotation
        End Site
        {
          OFFSET -0.000 0.072 -0.000
        }
      }
    }
  }
}
MOTION
Frames:	5
Frame Time:	0.0333333
58.4661 3.80529 -281.993 19.4563 15.3611 -62.1765 2.73888 -2.62345 1.43299 14.5095 -32.4997 7.66229 -2.38419e-05 -54.3067 -2.38419e-05 -4.69642 5.5611 0.456122 0 -40.6477 4.76837e-05 -18.0888 -4.78308 -12.2202 -2.0148 -4.81004 2.84431 7.2906 -2.80892 14.9476 -4.76837e-05 -55.59 2.38419e-05 4.81692 -7.18785 0.604116 1.19209e-05 -42.8833 0 -36.005 3.24425 -20.6855 -2.38419e-05 5.5984 -5.59838 6.10105 -27.8787 -1.05315 7.15256e-05 37.7364 -2.38419e-05 -44.9889 1.70755e-05 -9.55891 19.8735 0 1.19209e-05 -16.0951 48.1564 -6.7821 22.8826 4.76837e-05 3.27826e-05 2.93378e-05 -5.04806e-06 -125.697 25.4479 -2.38419e-05 5.96046e-06 11.7256 -0.684607 -15.379 0.0062 0.0497 0.0339 0 0 0 0 0.0215 0 0 0 0 0 0.022 0 0 0 0 0 0.017 0 0 0 0 -0.0068 0.0873 0.0207 0 0 0 0 0.0267 0 0 0 0 0 0.0213 0 0 0 0 0 0.018 0 0 0 0 -0.0067 0.0922 0.0055 0 0 0 0 0.0266 0 0 0 0 0 0.0228 0 0 0 0 0 0.015 0 0 0 0 -0.0067 0.0925 -0.0113 0 0 0 0 0.0247 0 0 0 0 0 0.0221 0 0 0 0 0 0.018 0 0 0 0 -0.0066 0.0935 -0.0272 0 0 0 0 0.0163 0 0 0 0 0 0.0171 0 0 0 0 0 0.018 0 0 0 0 7.15256e-05 37.7364 -2.38419e-05 24.0716 5.12264e-06 13.7299 -13.9047 -2.38419e-05 0 39.1773 14.8513 -17.6926 -23.8472 4.76837e-05 7.15256e-05 -3.01311e-06 1.44117e-05 113.618 -23.5252 -1.19209e-05 4.47035e-06 122.32 -5.02325 25.6124 -0.0062 0.0497 0.0339 45 0 0 0 0.0215 0 0 -45 0 0 0.022 0 0 -45 0 0 0.017 0 0 0 0 0.0068 0.0873 0.0207 45 0 0 0 0.0267 0 80 0 0 0 0.0213 0 90 0 0 0 0.018 0 0 0 0 0.0067 0.0922 0.0055 45 0 0 0 0.0266 0 80 0 0 0 0.0228 0 90 0 0 0 0.015 0 0 0 0 0.0067 0.0925 -0.0113 45 0 0 0 0.0247 0 80 0 0 0 0.0221 0 90 0 0 0 0.018 0 0 0 0 0.0066 0.0935 -0.0272 45 0 0 0 0.0163 0 80 0 0 0 0.0171 0 90 0 0 0 0.018 0 0 0 0 7.15256e-05 37.7364 -2.38419e-05 11.4212 19.7645 -3.90801 2.38419e-05 18.7114 -1.19209e-05 8.96462e-06 -1.07789e-05 5.12264e-06 
61.335 0.547504 -282.686 20.5098 15.8121 -59.9592 2.4123 -1.77602 0.753725 11.8255 -36.5694 8.1684 4.76837e-05 -52.7931 -4.76837e-05 -2.41041 6.08754 0.255777 2.38419e-05 -40.4398 -2.38419e-05 -20.0299 -3.83734 -13.2829 -1.70486 -4.33392 2.79897 6.88313 -2.49212 23.9784 4.76837e-05 -53.6787 2.38419e-05 1.30001 -12.9778 0.291997 -1.19209e-05 -42.4359 -4.76837e-05 -40.4165 6.98349 -21.9836 -4.76837e-05 5.68664 -5.68663 7.61134 -28.1847 -0.75397 2.38419e-05 37.7364 -1.19209e-05 -41.483 1.62217e-05 -13.6322 17.5966 1.78814e-05 -3.57628e-05 -24.4188 49.1418 -4.93819 23.1771 4.76837e-05 4.76837e-05 1.27125e-05 -2.93211e-06 -125.829 26.3444 4.76837e-05 5.96046e-06 12.2338 -0.444451 -15.1601 0.0062 0.0497 0.0339 0 0 0 0 0.0215 0 0 0 0 0 0.022 0 0 0 0 0 0.017 0 0 0 0 -0.0068 0.0873 0.0207 0 0 0 0 0.0267 0 0 0 0 0 0.0213 0 0 0 0 0 0.018 0 0 0 0 -0.0067 0.0922 0.0055 0 0 0 0 0.0266 0 0 0 0 0 0.0228 0 0 0 0 0 0.015 0 0 0 0 -0.0067 0.0925 -0.0113 0 0 0 0 0.0247 0 0 0 0 0 0.0221 0 0 0 0 0 0.018 0 0 0 0 -0.0066 0.0935 -0.0272 0 0 0 0 0.0163 0 0 0 0 0 0.0171 0 0 0 0 0 0.018 0 0 0 0 2.38419e-05 37.7364 -1.19209e-05 8.85447 3.41509e-06 18.3896 -13.1461 -2.38419e-05 2.38419e-05 53.7753 9.63092 -17.7463 -24.197 -3.57628e-05 -4.76837e-05 -3.21826e-06 1.48721e-05 114.421 -23.8256 2.38419e-05 -6.70552e-06 113.446 -0.302653 35.5867 -0.0062 0.0497 0.0339 45 0 0 0 0.0215 0 0 -45 0 0 0.022 0 0 -45 0 0 0.017 0 0 0 0 0.0068 0.0873 0.0207 45 0 0 0 0.0267 0 80 0 0 0 0.0213 0 90 0 0 0 0.018 0 0 0 0 0.0067 0.0922 0.0055 45 0 0 0 0.0266 0 80 0 0 0 0.0228 0 90 0 0 0 0.015 0 0 0 0 0.0067 0.0925 -0.0113 45 0 0 0 0.0247 0 80 0 0 0 0.0221 0 90 0 0 0 0.018 0 0 0 0 0.0066 0.0935 -0.0272 45 0 0 0 0.0163 0 80 0 0 0 0.0171 0 90 0 0 0 0.018 0 0 0 0 2.38419e-05 37.7364 -1.19209e-05 9.09523 17.2777 -2.72216 4.76837e-05 20.5175 -2.38419e-05 1.04587e-05 -9.39151e-06 0 
61.335 0.547504 -282.686 20.5098 15.8121 -59.9592 2.4123 -1.77602 0.753725 11.8255 -36.5694 8.1684 4.76837e-05 -52.7931 -4.76837e-05 -2.41041 6.08754 0.255777 2.38419e-05 -40.4398 -2.38419e-05 -20.0299 -3.83734 -13.2829 -1.70486 -4.33392 2.79897 6.88313 -2.49212 23.9784 4.76837e-05 -53.6787 2.38419e-05 1.30001 -12.9778 0.291997 -1.19209e-05 -42.4359 -4.76837e-05 -40.4165 6.98349 -21.9836 -4.76837e-05 5.68664 -5.68663 7.61134 -28.1847 -0.75397 2.38419e-05 37.7364 -1.19209e-05 -41.483 1.62217e-05 -13.6322 17.5966 1.78814e-05 -3.57628e-05 -24.4188 49.1418 -4.93819 23.1771 4.76837e-05 4.76837e-05 1.27125e-05 -2.93211e-06 -125.829 26.3444 4.76837e-05 5.96046e-06 12.2338 -0.444451 -15.1601 0.0062 0.0497 0.0339 0 0 0 0 0.0215 0 0 0 0 0 0.022 0 0 0 0 0 0.017 0 0 0 0 -0.0068 0.0873 0.0207 0 0 0 0 0.0267 0 0 0 0 0 0.0213 0 0 0 0 0 0.018 0 0 0 0 -0.0067 0.0922 0.0055 0 0 0 0 0.0266 0 0 0 0 0 0.0228 0 0 0 0 0 0.015 0 0 0 0 -0.0067 0.0925 -0.0113 0 0 0 0 0.0247 0 0 0 0 0 0.0221 0 0 0 0 0 0.018 0 0 0 0 -0.0066 0.0935 -0.0272 0 0 0 0 0.0163 0 0 0 0 0 0.0171 0 0 0 0 0 0.018 0 0 0 0 2.38419e-05 37.7364 -1.19209e-05 8.85447 3.41509e-06 18.3896 -13.1461 -2.38419e-05 2.38419e-05 53.7753 9.63092 -17.7463 -24.197 -3.57628e-05 -4.76837e-05 -3.21826e-06 1.48721e-05 114.421 -23.8256 2.38419e-05 -6.70552e-06 113.446 -0.302653 35.5867 -0.0062 0.0497 0.0339 45 0 0 0 0.0215 0 0 -45 0 0 0.022 0 0 -45 0 0 0.017 0 0 0 0 0.0068 0.0873 0.0207 45 0 0 0 0.0267 0 80 0 0 0 0.0213 0 90 0 0 0 0.018 0 0 0 0 0.0067 0.0922 0.0055 45 0 0 0 0.0266 0 80 0 0 0 0.0228 0 90 0 0 0 0.015 0 0 0 0 0.0067 0.0925 -0.0113 45 0 0 0 0.0247 0 80 0 0 0 0.0221 0 90 0 0 0 0.018 0 0 0 0 0.0066 0.0935 -0.0272 45 0 0 0 0.0163 0 80 0 0 0 0.0171 0 90 0 0 0 0.018 0 0 0 0 2.38419e-05 37.7364 -1.19209e-05 9.09523 17.2777 -2.72216 4.76837e-05 20.5175 -2.38419e-05 1.04587e-05 -9.39151e-06 0 
62.1673 -0.299315 -282.866 20.3041 15.8832 -59.0834 2.29912 -1.56761 0.590765 10.8841 -37.156 8.01425 0 -52.5123 -2.38419e-05 -1.56781 5.89443 0.16104 -3.57628e-05 -40.2605 0 -20.7925 -3.26196 -13.6081 -1.59196 -4.17939 2.73982 6.91612 -1.96744 19.9208 4.76837e-05 -53.2771 -4.76837e-05 1.65052 -14.3451 -3.525e-06 -4.76837e-05 -42.3023 -4.76837e-05 -41.4252 8.57082 -21.669 -2.38419e-05 5.66745 -5.66741 8.4013 -28.3254 -0.330469 4.76837e-05 37.7364 2.38419e-05 -40.5041 1.19528e-05 -15.0126 17.0612 -5.96046e-06 0 -27.0163 50.3296 -4.44438 23.3435 2.38419e-05 1.19209e-05 2.33477e-05 -1.27085e-05 -124.722 26.1575 0 -2.38419e-05 12.6986 -0.392569 -15.9853 0.0062 0.0497 0.0339 0 0 0 0 0.0215 0 0 0 0 0 0.022 0 0 0 0 0 0.017 0 0 0 0 -0.0068 0.0873 0.0207 0 0 0 0 0.0267 0 0 0 0 0 0.0213 0 0 0 0 0 0.018 0 0 0 0 -0.0067 0.0922 0.0055 0 0 0 0 0.0266 0 0 0 0 0 0.0228 0 0 0 0 0 0.015 0 0 0 0 -0.0067 0.0925 -0.0113 0 0 0 0 0.0247 0 0 0 0 0 0.0221 0 0 0 0 0 0.018 0 0 0 0 -0.0066 0.0935 -0.0272 0 0 0 0 0.0163 0 0 0 0 0 0.0171 0 0 0 0 0 0.018 0 0 0 0 4.76837e-05 37.7364 2.38419e-05 4.91579 3.84198e-06 19.682 -13.1216 5.96046e-06 -2.38419e-05 57.1298 8.06109 -21.7864 -25.252 1.19209e-05 2.38419e-05 -2.88867e-06 1.09799e-05 119.479 -25.7736 -2.38419e-05 -8.9407e-06 113.977 -0.164961 39.1462 -0.0062 0.0497 0.0339 45 0 0 0 0.0215 0 0 -45 0 0 0.022 0 0 -45 0 0 0.017 0 0 0 0 0.0068 0.0873 0.0207 45 0 0 0 0.0267 0 80 0 0 0 0.0213 0 90 0 0 0 0.018 0 0 0 0 0.0067 0.0922 0.0055 45 0 0 0 0.0266 0 80 0 0 0 0.0228 0 90 0 0 0 0.015 0 0 0 0 0.0067 0.0925 -0.0113 45 0 0 0 0.0247 0 80 0 0 0 0.0221 0 90 0 0 0 0.018 0 0 0 0 0.0066 0.0935 -0.0272 45 0 0 0 0.0163 0 80 0 0 0 0.0171 0 90 0 0 0 0.018 0 0 0 0 4.76837e-05 37.7364 2.38419e-05 8.53108 17.4351 -2.57344 -2.38419e-05 20.8416 -2.38419e-05 1.00318e-05 -1.15259e-05 -8.53774e-06 
63.2697 -0.973552 -283.284 19.8764 16.149 -57.7112 2.29218 -1.42808 0.691545 9.67658 -37.7264 3.08261 -1.19209e-05 -52.3463 0 -0.907619 5.34892 0.084612 2.38419e-05 -39.9791 0 -21.1888 -2.92326 -13.8054 -1.61973 -4.08446 2.50161 7.49465 -1.71407 15.4205 -1.19209e-05 -53.1449 2.38419e-05 2.21426 -15.6303 -1.77312e-06 2.38419e-05 -41.9861 -2.38419e-05 -42.3748 10.3311 -21.0471 2.38419e-05 5.59758 -5.59757 9.22384 -28.275 0.053651 -2.38419e-05 37.7364 2.38419e-05 -39.7491 1.70755e-05 -16.3634 16.5787 1.78814e-05 -3.57628e-05 -30.1922 51.7904 -3.82328 23.4349 2.38419e-05 1.19209e-05 -1.57896e-05 4.88806e-06 -124.402 26.4509 0 0 13.4139 -0.338325 -17.1999 0.0062 0.0497 0.0339 0 0 0 0 0.0215 0 0 0 0 0 0.022 0 0 0 0 0 0.017 0 0 0 0 -0.0068 0.0873 0.0207 0 0 0 0 0.0267 0 0 0 0 0 0.0213 0 0 0 0 0 0.018 0 0 0 0 -0.0067 0.0922 0.0055 0 0 0 0 0.0266 0 0 0 0 0 0.0228 0 0 0 0 0 0.015 0 0 0 0 -0.0067 0.0925 -0.0113 0 0 0 0 0.0247 0 0 0 0 0 0.0221 0 0 0 0 0 0.018 0 0 0 0 -0.0066 0.0935 -0.0272 0 0 0 0 0.0163 0 0 0 0 0 0.0171 0 0 0 0 0 0.018 0 0 0 0 -2.38419e-05 37.7364 2.38419e-05 1.39887 1.70755e-06 20.7518 -13.1821 0 -2.38419e-05 59.7597 6.7276 -22.5607 -25.2296 1.19209e-05 2.38419e-05 2.42146e-05 1.13561e-05 120.595 -26.0707 1.19209e-05 2.08616e-05 113.619 0.0605624 45.0435 -0.0062 0.0497 0.0339 45 0 0 0 0.0215 0 0 -45 0 0 0.022 0 0 -45 0 0 0.017 0 0 0 0 0.0068 0.0873 0.0207 45 0 0 0 0.0267 0 80 0 0 0 0.0213 0 90 0 0 0 0.018 0 0 0 0 0.0067 0.0922 0.0055 45 0 0 0 0.0266 0 80 0 0 0 0.0228 0 90 0 0 0 0.015 0 0 0 0 0.0067 0.0925 -0.0113 45 0 0 0 0.0247 0 80 0 0 0 0.0221 0 90 0 0 0 0.018 0 0 0 0 0.0066 0.0935 -0.0272 45 0 0 0 0.0163 0 80 0 0 0 0.0171 0 90 0 0 0 0.018 0 0 0 0 -2.38419e-05 37.7364 2.38419e-05 8.37861 17.3749 -2.51842 2.38419e-05 20.91 2.38419e-05 9.39151e-06 -9.17807e-06 -3.41509e-06 
